<?xml version="1.0" standalone="no"?>
<!DOCTYPE svg PUBLIC "-//W3C//DTD SVG 20010904//EN"
 "http://www.w3.org/TR/2001/REC-SVG-20010904/DTD/svg10.dtd">
<svg version="1.0" xmlns="http://www.w3.org/2000/svg"
 width="1024.000000pt" height="1024.000000pt" viewBox="0 0 1024.000000 1024.000000"
 preserveAspectRatio="xMidYMid meet">

<g transform="translate(0.000000,1024.000000) scale(0.100000,-0.100000)"
fill="#F4A460" stroke="none">
<path d="M5045 8270 c-113 -23 -244 -95 -309 -171 -21 -24 -52 -70 -69 -101
-23 -42 -36 -56 -47 -51 -179 78 -361 75 -509 -10 -111 -62 -207 -187 -245
-316 -20 -68 -21 -227 -2 -297 21 -78 72 -167 138 -239 76 -83 168 -130 286
-147 l82 -12 0 -223 c0 -258 -13 -237 122 -203 132 34 355 68 520 80 251 19
536 -8 816 -75 57 -14 108 -25 113 -25 5 0 9 97 9 230 l0 230 48 0 c202 1 411
182 462 400 16 66 16 186 0 255 -32 143 -153 292 -290 358 -134 66 -290 70
-432 13 l-58 -23 -31 56 c-70 124 -239 245 -378 271 -62 12 -168 11 -226 0z
m208 -310 c38 -14 70 -37 105 -74 42 -44 55 -67 77 -137 28 -91 44 -117 96
-148 62 -38 133 -24 208 42 49 42 129 77 177 77 126 0 239 -99 260 -228 10
-66 -19 -146 -74 -201 -55 -55 -94 -68 -233 -80 -158 -13 -178 -38 -184 -237
-3 -76 -6 -138 -8 -140 -1 -2 -45 3 -97 11 -183 28 -416 38 -589 26 -87 -6
-183 -15 -213 -20 -29 -5 -72 -11 -94 -14 l-41 -5 -5 133 c-4 107 -8 138 -24
165 -35 60 -62 72 -180 82 -129 11 -190 38 -238 106 -58 81 -68 142 -39 231
38 119 172 193 290 162 24 -7 72 -34 108 -62 99 -75 143 -85 222 -50 52 24 71
52 95 143 22 83 64 149 118 184 86 57 172 68 263 34z"/>
<path d="M2745 7225 c-22 -8 -47 -24 -55 -36 -35 -50 -293 -556 -348 -685
-184 -421 -198 -832 -40 -1191 198 -455 638 -756 1173 -803 128 -12 202 -8
332 17 99 19 140 12 179 -28 24 -25 29 -39 29 -79 0 -42 -5 -54 -34 -84 -37
-38 -95 -61 -178 -72 l-53 -7 0 -593 0 -594 325 0 325 0 0 235 c0 258 5 288
56 321 33 22 92 24 128 5 14 -8 35 -33 46 -56 18 -38 20 -61 20 -273 l0 -232
295 0 295 0 0 68 c0 89 14 135 51 166 34 29 89 35 133 14 46 -20 61 -55 66
-153 l5 -90 290 -5 c310 -6 326 -8 411 -63 52 -32 124 -111 159 -172 16 -28
30 -52 31 -54 2 -2 21 11 43 28 50 40 141 82 191 88 l39 5 3 179 3 179 31 31
c23 23 43 32 75 36 53 5 86 -11 116 -56 22 -32 23 -44 23 -197 l0 -164 98 0
c171 0 286 -46 392 -156 101 -105 154 -257 131 -379 -5 -25 -5 -45 -2 -45 15
0 61 56 75 92 14 32 16 121 16 676 0 351 3 680 6 730 l7 91 29 -45 c107 -161
306 -194 371 -62 36 72 3 125 -137 223 -125 87 -237 272 -256 420 -31 242 -47
318 -102 485 -98 300 -239 531 -463 756 -159 160 -322 273 -532 368 -509 232
-1204 330 -1713 242 -430 -74 -755 -254 -1089 -603 -224 -233 -308 -294 -429
-308 -152 -17 -290 55 -381 199 -112 178 -121 406 -26 648 41 102 74 168 236
459 152 273 150 283 -42 379 -57 29 -142 74 -189 100 -105 60 -115 62 -165 45z
m2516 -1354 c46 -46 47 -56 17 -189 -19 -82 -23 -126 -23 -282 0 -218 15 -289
95 -455 104 -214 254 -317 422 -288 195 33 340 178 416 413 51 157 51 307 2
528 -32 141 -29 163 22 192 25 13 34 13 94 -3 227 -59 477 -240 648 -467 118
-157 190 -310 242 -520 26 -106 28 -130 28 -300 0 -215 -14 -310 -75 -497 -61
-189 -80 -201 -319 -210 -802 -30 -1540 439 -1760 1117 -66 205 -92 440 -71
630 31 269 81 369 185 370 31 0 45 -7 77 -39z m-854 -398 c47 -22 85 -82 91
-141 10 -113 -89 -199 -204 -178 -45 9 -109 67 -125 113 -26 79 14 178 85 209
43 18 111 17 153 -3z"/>
<path d="M3751 2810 c-75 -18 -120 -73 -135 -167 l-11 -68 -58 -20 -57 -20
-78 22 c-42 12 -117 33 -166 47 -176 50 -362 56 -473 15 -161 -61 -192 -267
-52 -355 119 -75 359 -72 623 6 113 34 153 37 218 14 l47 -15 6 -67 c9 -99 30
-148 78 -183 22 -16 59 -33 81 -37 27 -4 -31 -9 -162 -12 l-204 -5 -24 -28
c-13 -15 -24 -35 -24 -43 0 -24 28 -71 47 -78 9 -4 741 -7 1625 -6 1237 0
1613 3 1628 12 33 21 46 66 29 97 -28 49 -41 51 -394 52 -290 0 -324 2 -282
13 57 16 96 42 119 82 14 24 18 69 23 269 3 132 1 275 -4 319 -8 68 -13 82
-41 111 -19 20 -50 38 -76 44 -51 13 -2228 14 -2283 1z"/>
<path d="M6890 2644 c-85 -10 -164 -28 -288 -66 -121 -37 -136 -39 -177 -29
-24 6 -46 11 -49 11 -3 0 -6 -63 -6 -141 0 -131 1 -141 18 -134 49 22 128 17
222 -14 306 -98 561 -76 655 57 25 37 30 53 30 102 0 49 -5 65 -30 101 -35 50
-82 85 -134 99 -42 11 -190 20 -241 14z"/>
</g>
</svg>
